<svg width="44" height="44" viewBox="0 0 44 44" fill="none" xmlns="http://www.w3.org/2000/svg">
<path d="M18.67 16.6667C18.67 15.7826 19.0208 14.9348 19.6452 14.3096C20.2695 13.6845 21.1163 13.3333 21.9993 13.3333C22.8823 13.3333 23.7291 13.6845 24.3535 14.3096C24.9779 14.9348 25.3286 15.7826 25.3286 16.6667V17.3333H26.6604V16.6667C26.6604 15.429 26.1693 14.242 25.2952 13.3668C24.4211 12.4917 23.2355 12 21.9993 12C20.7632 12 19.5776 12.4917 18.7035 13.3668C17.8294 14.242 17.3383 15.429 17.3383 16.6667V17.3333H18.67V16.6667ZM14.547 20.4453C14.6014 19.9562 14.834 19.5043 15.2004 19.1762C15.5667 18.848 16.0411 18.6666 16.5326 18.6667H27.4661C27.9574 18.6669 28.4314 18.8485 28.7974 19.1766C29.1635 19.5047 29.3959 19.9564 29.4503 20.4453L30.4877 29.7787C30.5188 30.0583 30.4907 30.3413 30.405 30.6093C30.3194 30.8773 30.1783 31.1241 29.9909 31.3338C29.8035 31.5434 29.5741 31.7111 29.3175 31.8259C29.061 31.9407 28.7831 32 28.5021 32H15.4965C15.2156 31.9999 14.9379 31.9404 14.6816 31.8255C14.4252 31.7106 14.1959 31.5429 14.0086 31.3333C13.8214 31.1237 13.6804 30.8768 13.5949 30.609C13.5093 30.3411 13.4812 30.0582 13.5123 29.7787L14.547 20.4453Z" fill="white"/>
</svg>
